<svg width="935" height="735" viewBox="0 0 935 735" fill="none" xmlns="http://www.w3.org/2000/svg">
<path d="M75.3653 241.886C116.988 241.886 150.731 208.144 150.731 166.52C150.731 124.897 116.988 91.1551 75.3653 91.1551C33.7422 91.1551 0 124.897 0 166.52C0 208.144 33.7422 241.886 75.3653 241.886Z" fill="#FF6584"/>
<path d="M858.607 605.629C858.264 618.458 856.115 631.174 852.224 643.403C852.135 643.687 852.042 643.967 851.949 644.25H828.127C828.152 643.996 828.178 643.712 828.203 643.403C829.792 625.143 838.949 514.006 828 495C828.957 496.542 860.454 547.608 858.607 605.629Z" fill="#E6E6E6"/>
<path d="M856.82 643.403C856.621 643.687 856.413 643.971 856.202 644.25H838.331C838.467 644.009 838.623 643.725 838.805 643.403C841.758 638.075 850.496 622.144 858.607 605.629C867.325 587.881 875.322 569.46 874.648 562.793C874.856 564.297 880.887 610.136 856.82 643.403Z" fill="#E6E6E6"/>
<path d="M934.759 597.385H249.759V599.625H934.759V597.385Z" fill="#E6E6E6"/>
<path d="M688.223 667.355L691.551 639.902L785.555 615.777L774.74 583.333C782.274 561.726 795.499 551.133 819.663 561.704L861.227 587.524C865.266 590.034 868.557 593.582 870.755 597.799C872.953 602.016 873.977 606.746 873.72 611.495C873.466 616.262 871.93 620.872 869.273 624.839C866.616 628.805 862.937 631.98 858.625 634.03C812.095 656.086 752.791 664.525 688.223 667.355Z" fill="#FFB8B8"/>
<path d="M721.855 387.453C736.727 387.453 748.783 375.397 748.783 360.526C748.783 345.654 736.727 333.598 721.855 333.598C706.984 333.598 694.928 345.654 694.928 360.526C694.928 375.397 706.984 387.453 721.855 387.453Z" fill="#FFB8B8"/>
<path d="M763.926 413.626L703.613 438.999C708.515 414.388 710.958 391.968 703.613 378.271L742.297 373.695C740.376 384.221 750.163 398.318 763.926 413.626Z" fill="#FFB8B8"/>
<path d="M661.603 666.523L639.141 664.859C625.381 607.48 618.336 553.244 621.411 503.747C621.846 496.521 625.062 489.744 630.386 484.839C635.709 479.933 642.726 477.281 649.963 477.437C656.917 477.595 663.563 480.34 668.602 485.135L697.648 512.776C710.601 525.007 720.656 539.978 727.079 556.595C735.305 578.14 732.352 590.219 712.713 588.167C700.442 586.799 689.156 580.799 681.159 571.391L659.939 546.73L661.603 666.523Z" fill="#FFB8B8"/>
<path d="M856.682 584.581C825.902 602.051 816.255 602.558 785.555 614.946L758.934 599.971C727.67 611.532 705.739 595.684 681.984 572.103C697.529 546.21 690.654 512.563 700.286 513.038L815.503 549.226L820.495 561.704L856.682 584.581Z" fill="#2F2E41"/>
<path d="M819.663 557.545C778.981 575.154 735.177 556.51 697.79 515.534L673.034 415.554C672.742 414.453 672.678 413.304 672.846 412.177C673.015 411.05 673.413 409.969 674.015 409.002C674.617 408.034 675.411 407.201 676.348 406.552C677.285 405.903 678.345 405.453 679.462 405.23L708.189 399.484L722.331 421.945L750.615 396.989L780.653 406.809C784.647 408.114 788.211 410.481 790.965 413.655C793.718 416.829 795.558 420.691 796.287 424.829L819.663 557.545Z" fill="#6C63FF"/>
<path opacity="0.2" d="M755.044 642.303C752.848 641.466 750.886 640.115 749.32 638.363C747.754 636.612 746.632 634.51 746.046 632.234C745.461 629.959 745.43 627.576 745.956 625.286C746.482 622.996 747.549 620.866 749.068 619.074L768.085 596.644L781.396 604.131L774.542 632.074C774.046 634.096 773.126 635.989 771.842 637.629C770.559 639.268 768.942 640.616 767.099 641.583C765.255 642.551 763.227 643.115 761.149 643.239C759.07 643.363 756.99 643.044 755.044 642.303Z" fill="black"/>
<path d="M755.044 638.975C752.848 638.139 750.886 636.788 749.32 635.036C747.754 633.284 746.632 631.182 746.046 628.907C745.461 626.631 745.43 624.249 745.956 621.959C746.482 619.669 747.549 617.538 749.068 615.746L768.085 593.316L781.396 600.803L774.542 628.746C774.046 630.768 773.126 632.662 771.842 634.301C770.559 635.941 768.942 637.289 767.099 638.256C765.255 639.223 763.227 639.787 761.149 639.911C759.07 640.035 756.99 639.716 755.044 638.975Z" fill="#FFB8B8"/>
<path d="M784.723 607.458L764.758 594.148L793.874 516.782L783.059 407.803L792.925 413.969C798.219 417.278 802.787 421.628 806.349 426.756C809.912 431.883 812.396 437.68 813.651 443.797L829.646 521.773C822.647 557.715 810.981 589.338 784.723 607.458Z" fill="#6C63FF"/>
<path opacity="0.2" d="M772.661 483.922L782.644 533.836L774.433 563.028L772.661 483.922Z" fill="black"/>
<path d="M695.521 358.217C695.521 358.217 680.004 307.433 727.428 318.084C734.784 319.736 741.139 324.012 746.195 329.605C746.648 330.094 747.202 330.478 747.819 330.73C748.436 330.982 749.101 331.096 749.767 331.064C757.343 331.064 762.022 358.136 746.871 370.041C746.871 370.041 749.962 354.021 744.343 348.562C743.332 347.639 742.486 346.55 741.842 345.342C738.184 337.964 725.889 335.542 717.41 336.17C713.081 336.491 712.702 344.039 707.91 342.984C697.006 340.586 693.525 353.217 695.521 358.217Z" fill="#2F2E41"/>
<path d="M743.254 433.59L742.941 435.89L741.003 450.077L737.829 473.312L737.034 479.129C736.974 479.573 736.754 479.98 736.417 480.275C736.079 480.569 735.646 480.732 735.198 480.732H714.035C713.587 480.732 713.155 480.57 712.818 480.276C712.48 479.983 712.26 479.577 712.198 479.133L711.39 473.312L708.163 450.077L706.191 435.879L705.874 433.595C705.838 433.332 705.858 433.065 705.933 432.811C706.009 432.557 706.138 432.322 706.312 432.123C706.485 431.923 706.7 431.762 706.941 431.653C707.183 431.543 707.444 431.486 707.709 431.486H741.418C741.682 431.486 741.944 431.543 742.185 431.652C742.425 431.762 742.64 431.922 742.814 432.121C742.988 432.32 743.117 432.555 743.193 432.808C743.269 433.061 743.29 433.328 743.254 433.59Z" fill="#E6E6E6"/>
<path d="M709.943 425.33H739.294C739.537 425.33 739.778 425.378 740.003 425.471C740.228 425.565 740.433 425.701 740.605 425.873C740.777 426.045 740.913 426.25 741.006 426.475C741.1 426.699 741.148 426.941 741.148 427.184V429.633C741.148 430.124 740.952 430.596 740.605 430.943C740.257 431.291 739.786 431.486 739.294 431.486H709.943C709.451 431.486 708.98 431.291 708.632 430.943C708.284 430.596 708.089 430.124 708.089 429.633V427.184C708.089 426.94 708.137 426.699 708.23 426.475C708.323 426.25 708.46 426.045 708.632 425.873C708.804 425.701 709.008 425.565 709.233 425.471C709.458 425.378 709.699 425.33 709.943 425.33Z" fill="#3F3D56"/>
<path d="M745.906 434.564C731.756 436.108 717.48 436.108 703.331 434.564C703.087 434.564 702.846 434.516 702.622 434.423C702.397 434.33 702.192 434.193 702.02 434.021C701.848 433.849 701.712 433.645 701.618 433.42C701.525 433.195 701.477 432.954 701.477 432.711V430.262C701.477 430.018 701.525 429.777 701.618 429.552C701.712 429.328 701.848 429.123 702.02 428.951C702.192 428.779 702.397 428.643 702.622 428.549C702.846 428.456 703.087 428.408 703.331 428.408C717.469 430.147 731.767 430.147 745.906 428.408C746.397 428.408 746.869 428.604 747.216 428.951C747.564 429.299 747.759 429.77 747.759 430.262V432.711C747.759 433.202 747.564 433.673 747.216 434.021C746.869 434.369 746.397 434.564 745.906 434.564Z" fill="#3F3D56"/>
<path d="M723.759 463.008C728.177 463.008 731.759 459.427 731.759 455.008C731.759 450.59 728.177 447.008 723.759 447.008C719.341 447.008 715.759 450.59 715.759 455.008C715.759 459.427 719.341 463.008 723.759 463.008Z" fill="white"/>
<path d="M744.326 471.839C744.569 474.176 744.248 476.537 743.39 478.724C742.532 480.911 741.161 482.861 739.394 484.409C737.627 485.957 735.514 487.059 733.233 487.621C730.952 488.184 728.569 488.192 726.284 487.643L697.69 480.778L698.374 465.522L726.407 459.045C728.435 458.576 730.54 458.544 732.582 458.95C734.624 459.357 736.556 460.193 738.25 461.402C739.945 462.612 741.363 464.168 742.41 465.968C743.457 467.767 744.11 469.768 744.326 471.839Z" fill="#FFB8B8"/>
<path d="M705.693 483.506L628.524 485.435C625.739 485.505 622.972 484.966 620.415 483.857C617.859 482.748 615.575 481.094 613.724 479.012C611.872 476.93 610.496 474.469 609.693 471.801C608.889 469.133 608.677 466.322 609.071 463.563C609.688 459.241 611.763 455.259 614.951 452.277L651.285 418.287C658.023 411.983 666.42 407.732 675.489 406.031L688.223 403.644L695.71 460.213L652.452 455.221L703.197 461.045L705.693 483.506Z" fill="#6C63FF"/>
<path d="M610.636 643.284L400.417 642.895L424.781 601.901L424.897 601.706V511.359C424.897 510.262 425.113 509.176 425.533 508.163C425.953 507.15 426.568 506.229 427.343 505.454C428.118 504.679 429.039 504.063 430.052 503.644C431.065 503.224 432.151 503.008 433.248 503.008H576.64C577.736 503.008 578.822 503.224 579.835 503.644C580.848 504.063 581.769 504.679 582.545 505.454C583.32 506.229 583.935 507.15 584.355 508.163C584.774 509.176 584.99 510.262 584.99 511.359V602.328L610.636 643.284Z" fill="#3F3D56"/>
<path d="M433.057 508.837C432.336 508.838 431.645 509.125 431.135 509.635C430.625 510.145 430.338 510.836 430.338 511.557V593.935C430.338 594.656 430.625 595.347 431.135 595.857C431.645 596.367 432.336 596.654 433.057 596.655H577.996C578.717 596.654 579.408 596.367 579.918 595.857C580.428 595.347 580.715 594.656 580.716 593.935V511.557C580.715 510.836 580.428 510.145 579.918 509.635C579.408 509.125 578.717 508.838 577.996 508.837L433.057 508.837Z" fill="white"/>
<path d="M504.944 507.477C505.91 507.477 506.692 506.694 506.692 505.728C506.692 504.763 505.91 503.98 504.944 503.98C503.978 503.98 503.195 504.763 503.195 505.728C503.195 506.694 503.978 507.477 504.944 507.477Z" fill="white"/>
<path d="M584.99 600.346V601.901H424.781L424.901 601.706V600.346H584.99Z" fill="#2F2E41"/>
<path d="M344.61 593.795C345.05 610.237 347.805 626.536 352.792 642.21C352.906 642.574 353.025 642.932 353.144 643.296H383.677C383.645 642.971 383.612 642.607 383.579 642.21C381.544 618.806 369.806 476.36 383.84 452C382.613 453.976 342.243 519.428 344.61 593.795Z" fill="#E6E6E6"/>
<path d="M346.901 642.21C347.156 642.574 347.422 642.938 347.694 643.296H370.599C370.425 642.987 370.224 642.623 369.991 642.21C366.207 635.381 355.007 614.962 344.61 593.795C333.437 571.047 323.187 547.436 324.051 538.891C323.784 540.818 316.054 599.571 346.901 642.21Z" fill="#E6E6E6"/>
<path d="M397.549 151.173L409.963 141.244C400.319 140.18 396.357 145.44 394.735 149.603C387.202 146.474 379 150.574 379 150.574L403.837 159.591C402.584 156.244 400.403 153.324 397.549 151.173Z" fill="#3F3D56"/>
<path d="M771.433 100.067L783.847 90.1391C774.203 89.0751 770.241 94.3345 768.62 98.4973C761.086 95.3689 752.884 99.4688 752.884 99.4688L777.721 108.486C776.468 105.139 774.287 102.219 771.433 100.067Z" fill="#3F3D56"/>
<path d="M699.952 231.823L712.366 221.894C702.722 220.83 698.76 226.09 697.138 230.252C689.605 227.124 681.403 231.224 681.403 231.224L706.24 240.241C704.987 236.894 702.806 233.974 699.952 231.823Z" fill="#3F3D56"/>
<path d="M229.971 470.015C290.89 459.032 322.107 349.363 299.696 225.064C277.285 100.765 209.733 8.90392 148.814 19.8875C87.895 30.871 56.678 140.539 79.0889 264.839C101.5 389.138 169.052 480.999 229.971 470.015Z" fill="#E6E6E6"/>
<path d="M171.036 202.146C180.895 228.953 189.667 256.126 197.355 283.664C205.027 311.176 211.591 338.965 217.044 367.033C222.498 395.091 226.821 423.337 230.015 451.771C233.193 480.155 235.235 508.636 236.141 537.214C237.041 565.761 236.792 594.314 235.395 622.872C235.223 626.371 235.033 629.869 234.826 633.365C234.616 636.947 240.188 636.935 240.398 633.365C242.082 604.717 242.61 576.034 241.983 547.315C241.352 518.76 239.579 490.261 236.664 461.818C233.741 433.292 229.693 404.91 224.518 376.672C219.34 348.446 213.035 320.459 205.605 292.709C198.179 264.991 189.641 237.602 179.99 210.544C178.813 207.245 177.619 203.952 176.409 200.665C175.181 197.327 169.794 198.77 171.036 202.146V202.146Z" fill="#3F3D56"/>
<path d="M209.428 307.601L234.112 252.792L241.07 237.344C241.421 236.701 241.513 235.948 241.327 235.239C241.141 234.531 240.692 233.92 240.07 233.532C239.431 233.165 238.673 233.064 237.96 233.251C237.246 233.438 236.635 233.898 236.259 234.531L211.574 289.341L204.617 304.789C204.266 305.432 204.174 306.185 204.359 306.893C204.545 307.602 204.995 308.213 205.616 308.601C206.255 308.968 207.013 309.069 207.727 308.882C208.44 308.695 209.051 308.235 209.428 307.601H209.428Z" fill="#3F3D56"/>
<path d="M214.882 345.051L158.597 323.948L142.732 318C142.02 317.81 141.262 317.907 140.62 318.271C139.979 318.635 139.507 319.237 139.305 319.946C139.125 320.658 139.227 321.412 139.589 322.05C139.952 322.689 140.547 323.163 141.251 323.373L197.537 344.476L213.401 350.424C214.113 350.614 214.871 350.517 215.513 350.153C216.154 349.789 216.626 349.187 216.828 348.478C217.008 347.766 216.906 347.012 216.544 346.374C216.181 345.735 215.586 345.261 214.882 345.051V345.051Z" fill="#3F3D56"/>
<path d="M431.806 570L446.901 569.498L451.194 569.355C452.267 569.319 452.27 563.964 451.194 564L436.099 564.502L431.806 564.645C430.733 564.681 430.73 570.036 431.806 570Z" fill="#6C63FF"/>
<path d="M541 554C541 566.19 534.945 577.003 525.605 583.745C521.694 586.566 517.209 588.674 512.351 589.87C509.359 590.609 506.228 591 503 591C499.772 591 496.639 590.609 493.647 589.87C488.79 588.674 484.304 586.566 480.394 583.743C471.054 577.002 465 566.189 465 554C465 533.565 482.013 517 503 517C523.987 517 541 533.565 541 554Z" fill="#FFCE3E"/>
<path d="M524.649 568.66C524.495 567.649 524.29 566.609 524.037 565.545C523.814 564.61 523.554 563.658 523.259 562.691C522.484 560.151 521.463 557.512 520.224 554.844C519.682 553.678 519.098 552.506 518.475 551.336C517.926 550.305 517.347 549.272 516.737 548.246C516.129 547.218 515.502 546.215 514.857 545.236C514.129 544.126 513.379 543.049 512.612 542.008C510.86 539.63 509.023 537.448 507.151 535.524C506.439 534.792 505.722 534.097 505.002 533.443C504.182 532.696 503.358 532.003 502.536 531.368C497.167 527.217 492.361 525.971 489.001 527.86C485.64 529.749 484.346 534.425 485.352 541.028C485.506 542.038 485.712 543.079 485.966 544.143C486.187 545.077 486.446 546.03 486.743 546.997C487.518 549.537 488.539 552.177 489.779 554.844C490.32 556.01 490.904 557.18 491.527 558.35C492.076 559.383 492.656 560.414 493.265 561.442C493.873 562.469 494.5 563.473 495.145 564.452C495.874 565.563 496.624 566.64 497.39 567.681C499.142 570.059 500.979 572.239 502.851 574.163C503.563 574.896 504.282 575.591 505.002 576.245C505.821 576.992 506.645 577.684 507.466 578.32C509.44 579.846 511.338 580.98 513.116 581.707C517.331 580.669 521.223 578.84 524.616 576.392C525.089 574.267 525.107 571.663 524.649 568.66ZM521.627 575.915C521.235 577.564 520.515 578.694 519.485 579.271C518.457 579.851 517.092 579.893 515.43 579.4C513.63 578.864 511.527 577.692 509.35 576.008C508.618 575.442 507.884 574.826 507.151 574.165C506.432 573.515 505.713 572.82 505 572.085C503.775 570.823 502.564 569.442 501.382 567.96C500.594 566.97 499.817 565.937 499.06 564.863C497.96 563.308 496.898 561.67 495.889 559.966C494.878 558.263 493.952 556.549 493.119 554.844C492.543 553.668 492.011 552.497 491.527 551.337C490.799 549.6 490.176 547.887 489.666 546.224C489.369 545.254 489.11 544.303 488.893 543.371C488.67 542.422 488.488 541.495 488.351 540.594C487.942 537.917 487.951 535.558 488.375 533.772C488.767 532.124 489.488 530.994 490.516 530.416C491.072 530.104 491.725 529.947 492.469 529.947C493.104 529.947 493.807 530.061 494.571 530.289C496.372 530.824 498.474 531.997 500.651 533.679C501.384 534.245 502.118 534.861 502.851 535.526C503.571 536.174 504.288 536.869 505 537.603C506.226 538.865 507.437 540.246 508.62 541.729C509.409 542.719 510.185 543.753 510.943 544.826C512.041 546.381 513.103 548.019 514.113 549.722C515.123 551.425 516.049 553.139 516.882 554.844C517.458 556.021 517.99 557.192 518.474 558.352C519.202 560.09 519.826 561.801 520.336 563.464C520.632 564.434 520.891 565.385 521.11 566.317C521.332 567.265 521.513 568.193 521.651 569.093C522.06 571.771 522.051 574.129 521.627 575.915Z" fill="black"/>
<path d="M527.114 545.185C526.138 544.81 525.11 544.463 524.036 544.143C523.094 543.864 522.116 543.606 521.108 543.371C518.462 542.755 515.604 542.297 512.612 542.008C511.305 541.881 509.972 541.788 508.62 541.729C507.428 541.675 506.219 541.648 505.001 541.648C503.783 541.648 502.575 541.675 501.381 541.729C500.029 541.788 498.695 541.882 497.388 542.008C494.396 542.297 491.539 542.755 488.893 543.371C487.885 543.606 486.908 543.864 485.966 544.143C484.892 544.461 483.864 544.81 482.888 545.185C476.513 547.635 473 551.066 473 554.844C473 558.622 476.513 562.052 482.888 564.504C483.864 564.879 484.891 565.226 485.964 565.546C486.907 565.825 487.884 566.083 488.892 566.316C491.538 566.934 494.396 567.391 497.389 567.681C498.696 567.806 500.03 567.899 501.382 567.96C502.575 568.013 503.783 568.04 505.001 568.04C506.219 568.04 507.427 568.013 508.619 567.96C509.972 567.899 511.304 567.806 512.612 567.681C515.604 567.392 518.464 566.934 521.11 566.316C522.118 566.082 523.095 565.825 524.037 565.545C525.11 565.226 526.138 564.879 527.114 564.504C533.49 562.052 537.002 558.622 537.002 554.844C537.001 551.066 533.49 547.635 527.114 545.185ZM532.055 558.327C530.68 559.578 528.586 560.764 526 561.759C525.13 562.093 524.215 562.405 523.259 562.69C522.321 562.972 521.345 563.23 520.336 563.464C518.601 563.866 516.767 564.196 514.857 564.452C513.584 564.623 512.277 564.761 510.943 564.862C509.009 565.013 507.021 565.089 505.001 565.089C502.981 565.089 500.993 565.013 499.059 564.863C497.726 564.761 496.418 564.624 495.144 564.452C493.235 564.196 491.4 563.866 489.665 563.464C488.656 563.23 487.68 562.972 486.742 562.691C485.787 562.405 484.872 562.093 484.001 561.759C481.415 560.764 479.321 559.578 477.946 558.327C476.675 557.172 476.031 556.001 476.031 554.844C476.031 553.687 476.675 552.515 477.946 551.361C479.321 550.109 481.415 548.923 484.001 547.929C484.871 547.595 485.787 547.283 486.742 546.997C487.68 546.715 488.656 546.457 489.665 546.224C491.4 545.822 493.235 545.491 495.144 545.236C496.418 545.064 497.726 544.927 499.059 544.824C500.993 544.675 502.981 544.599 505.001 544.599C507.021 544.599 509.009 544.675 510.943 544.826C512.277 544.927 513.584 545.064 514.857 545.236C516.767 545.492 518.601 545.822 520.336 546.224C521.345 546.457 522.321 546.715 523.259 546.997C524.215 547.283 525.13 547.595 526 547.929C528.586 548.924 530.68 550.109 532.055 551.361C533.326 552.515 533.971 553.687 533.971 554.844C533.971 556.001 533.326 557.172 532.055 558.327Z" fill="black"/>
<path d="M521.001 527.86C517.64 525.971 512.834 527.217 507.466 531.368C506.645 532.003 505.821 532.696 505.001 533.443C504.281 534.097 503.563 534.793 502.851 535.525C500.979 537.449 499.142 539.63 497.388 542.008C496.622 543.049 495.873 544.126 495.145 545.236C494.5 546.215 493.873 547.218 493.265 548.246C492.656 549.273 492.076 550.304 491.527 551.337C490.904 552.507 490.32 553.679 489.779 554.844C488.539 557.512 487.518 560.151 486.743 562.69C486.446 563.659 486.187 564.611 485.965 565.546C485.712 566.61 485.506 567.649 485.352 568.659C484.895 571.662 484.912 574.265 485.386 576.391C488.779 578.84 492.671 580.669 496.886 581.707C498.664 580.98 500.562 579.846 502.536 578.32C503.358 577.684 504.182 576.991 505.002 576.245C505.722 575.591 506.439 574.897 507.151 574.164C509.022 572.241 510.86 570.059 512.612 567.68C513.378 566.64 514.128 565.563 514.857 564.452C515.502 563.473 516.129 562.469 516.737 561.442C517.347 560.415 517.926 559.384 518.475 558.352C519.098 557.181 519.682 556.01 520.225 554.844C521.463 552.177 522.484 549.536 523.259 546.997C523.554 546.03 523.814 545.077 524.036 544.143C524.29 543.079 524.495 542.038 524.65 541.028C525.656 534.425 524.361 529.749 521.001 527.86ZM520.336 546.224C519.826 547.887 519.203 549.598 518.475 551.336C517.99 552.495 517.459 553.667 516.883 554.844C516.049 556.549 515.123 558.263 514.113 559.966C513.103 561.668 512.042 563.306 510.943 564.862C510.184 565.936 509.408 566.97 508.619 567.96C507.438 569.442 506.226 570.823 505 572.085C504.288 572.819 503.571 573.513 502.851 574.163C502.119 574.826 501.384 575.442 500.652 576.008C498.474 577.692 496.372 578.864 494.571 579.4C492.909 579.892 491.545 579.85 490.516 579.271C489.488 578.693 488.767 577.564 488.375 575.915C487.951 574.129 487.942 571.77 488.351 569.093C488.488 568.193 488.67 567.265 488.892 566.316C489.11 565.385 489.37 564.433 489.666 563.464C490.176 561.801 490.799 560.088 491.527 558.35C492.012 557.191 492.543 556.019 493.119 554.844C493.952 553.139 494.878 551.425 495.889 549.721C496.898 548.018 497.96 546.38 499.06 544.824C499.817 543.751 500.593 542.717 501.381 541.729C502.564 540.246 503.775 538.865 505 537.603C505.713 536.867 506.432 536.173 507.151 535.524C507.884 534.861 508.618 534.245 509.35 533.679C511.527 531.997 513.63 530.824 515.43 530.289C516.195 530.061 516.897 529.947 517.532 529.947C518.277 529.947 518.931 530.104 519.485 530.416C520.515 530.994 521.235 532.124 521.626 533.772C522.05 535.558 522.06 537.917 521.651 540.594C521.513 541.494 521.332 542.422 521.108 543.371C520.892 544.303 520.632 545.254 520.336 546.224Z" fill="black"/>
<path d="M505.001 560.7C508.323 560.7 511.016 558.078 511.016 554.844C511.016 551.609 508.323 548.988 505.001 548.988C501.68 548.988 498.987 551.609 498.987 554.844C498.987 558.078 501.68 560.7 505.001 560.7Z" fill="black"/>
<path d="M694.047 675.674L664.93 671.515L637.697 677.072C636.028 677.413 634.306 677.387 632.648 676.997C630.991 676.606 629.438 675.861 628.097 674.811C626.755 673.762 625.658 672.434 624.88 670.919C624.103 669.404 623.663 667.738 623.592 666.037C623.513 664.134 623.897 662.24 624.711 660.519C625.525 658.797 626.745 657.299 628.267 656.153L670.941 624C674.601 621.243 679.124 619.88 683.698 620.157C688.272 620.434 692.598 622.332 695.899 625.51L706.525 635.743C698.921 640.46 693.266 647.539 689.887 657.372C697.195 661.39 698.582 667.49 694.047 675.674Z" fill="#2F2E41"/>
<path d="M644.209 734.707C641.265 734.515 638.404 733.648 635.849 732.173C633.295 730.697 631.114 728.654 629.476 726.2C627.838 723.746 626.787 720.948 626.405 718.023C626.022 715.097 626.318 712.123 627.27 709.331L631.654 696.471L634.982 664.027C640.108 653.568 647.367 655.132 655.779 663.195C661.127 662.67 662.275 657.323 661.603 649.885L678.467 672.587C679.91 674.53 680.806 676.825 681.061 679.232C681.316 681.638 680.921 684.07 679.917 686.272L662.945 723.503C661.327 727.051 658.669 730.023 655.322 732.024C651.976 734.025 648.1 734.961 644.209 734.707Z" fill="#2F2E41"/>
<path d="M604.03 649.501H407.023C405.271 649.501 403.591 648.805 402.352 647.566C401.113 646.327 400.417 644.647 400.417 642.895C471.832 634.595 541.905 634.595 610.636 642.895C610.636 644.647 609.94 646.327 608.701 647.566C607.462 648.805 605.782 649.501 604.03 649.501Z" fill="#2F2E41"/>
<path d="M434.01 607.535C433.787 607.535 433.569 607.599 433.381 607.72C433.194 607.84 433.044 608.011 432.951 608.213L425.444 624.534C425.362 624.711 425.326 624.906 425.34 625.102C425.353 625.297 425.416 625.485 425.521 625.65C425.627 625.814 425.772 625.95 425.943 626.044C426.115 626.137 426.307 626.187 426.503 626.187H584.375C584.574 626.187 584.769 626.136 584.943 626.039C585.116 625.942 585.262 625.803 585.366 625.634C585.471 625.465 585.53 625.272 585.539 625.073C585.548 624.875 585.506 624.677 585.417 624.499L577.257 608.179C577.161 607.985 577.012 607.822 576.828 607.708C576.644 607.594 576.431 607.534 576.215 607.535L434.01 607.535Z" fill="#2F2E41"/>
<path d="M489.426 629.295C489.17 629.295 488.921 629.38 488.718 629.536C488.514 629.692 488.368 629.91 488.301 630.158L486.418 637.152C486.371 637.325 486.365 637.506 486.4 637.681C486.434 637.857 486.509 638.022 486.618 638.164C486.727 638.306 486.867 638.421 487.027 638.501C487.188 638.58 487.364 638.621 487.543 638.621H523.356C523.541 638.621 523.725 638.577 523.89 638.491C524.055 638.406 524.197 638.283 524.305 638.131C524.413 637.98 524.483 637.805 524.509 637.621C524.536 637.437 524.518 637.249 524.457 637.074L522.036 630.079C521.956 629.85 521.808 629.652 521.61 629.511C521.413 629.371 521.177 629.295 520.934 629.295H489.426Z" fill="#2F2E41"/>
</svg>
